<svg width="246" height="526" viewBox="0 0 246 526" fill="none" xmlns="http://www.w3.org/2000/svg">
<path d="M235.187 112.38C230.857 131.32 223.557 148.82 213.887 164.47C197.487 191.05 174.257 212.38 147.157 226.57C141.427 228.82 135.837 231.38 130.407 234.22C87.3366 256.77 54.0566 297.32 42.3766 348.41C42.0166 349.98 41.6766 351.54 41.3766 353.11C39.6566 335.23 40.7366 316.77 44.9566 298.3C49.2866 279.36 56.5866 261.86 66.2566 246.2C82.6466 219.62 105.867 198.32 132.937 184.13C138.697 181.87 144.327 179.28 149.787 176.42C192.817 153.87 226.097 113.33 237.767 62.2598C238.127 60.6998 238.457 59.1498 238.757 57.5898C240.467 75.4598 239.397 93.8998 235.177 112.37L235.187 112.38Z" fill="white"/>
<path d="M234.074 192.08C230.314 200.58 225.744 208.5 220.504 215.81C204.914 237.48 183.264 253.75 158.404 263.67C148.274 265.56 138.434 268.4 129.074 272.14C95.8243 285.4 68.3143 310.03 53.3843 343.74C49.9143 351.58 47.2643 359.6 45.4043 367.71C35.0843 346.99 36.1443 333.74 39.3543 325.29C42.5443 316.9 48.3143 312.06 55.6143 295.97C56.5643 293.88 58.8743 288.65 62.8143 282C64.8043 278.64 66.9343 275.38 69.1943 272.24C84.7943 250.56 106.454 234.28 131.334 224.36C141.434 222.49 151.244 219.66 160.594 215.92C193.844 202.66 221.384 178.02 236.314 144.3C239.784 136.46 242.434 128.44 244.294 120.33C247.414 144.34 244.314 168.96 234.084 192.08H234.074Z" fill="white"/>
<path d="M211.894 97.78C209.734 107.74 204.924 128.81 188.874 150.69C178.074 165.42 165.804 175.59 155.484 182.43C139.064 189.6 126.794 198.12 118.294 205.06C91.5642 226.86 78.4042 251.81 72.4742 264.41C69.7842 270.12 65.4942 281.48 57.0342 304.25C50.7742 321.11 47.2442 331.54 45.4142 345.58C44.4142 353.24 44.2342 359.68 44.2442 364.14C29.5342 334.97 24.3542 300.76 31.8442 266.35C36.1042 246.76 44.0742 228.93 54.8642 213.44C68.0642 194.48 85.4642 179.03 105.444 168.14C112.354 165.61 119.044 162.57 125.464 159.07C135.544 153.55 148.614 144.91 161.354 131.65C172.254 120.31 179.214 109.43 183.274 102.27C187.664 94.52 194.844 80.21 199.054 60.86C203.094 42.31 203.444 23.8 200.594 6.12C200.334 4.46 200.034 2.8 199.714 1.15C199.654 0.77 199.574 0.38 199.494 0C214.204 29.16 219.384 63.38 211.894 97.78Z" fill="white"/>
<path d="M137.94 256.94C137.94 259.12 137.65 261.14 137.65 261.14C136.87 264.86 134.87 267.51 133.46 269.03C131.54 266.42 127.77 262.07 121.6 258.91C120.2 258.19 115.54 255.93 109 255.31C104.13 254.85 100.45 255.52 97.22 256.13C90.52 257.4 85.74 259.61 82 261.37C80.45 262.1 74.31 265.05 66.95 270.53C62.77 273.65 56.94 278.05 51.08 285.42C48.05 289.23 44.06 295.03 40.76 302.9C17.36 297.18 0 276.07 0 250.91C0 221.35 23.96 197.39 53.52 197.39C72.14 197.39 88.55 206.91 98.13 221.34C120.31 222.32 137.93 237.89 137.93 256.95L137.94 256.94Z" fill="#101828"/>
<path d="M168.027 439.06C164.507 451.37 159.288 462.92 152.598 473.31C100.158 472.45 54.2175 434.23 45.4075 380.65C44.7075 376.4 44.2675 372.16 44.0575 367.96C43.9875 366.68 43.9575 365.41 43.9375 364.14C44.0375 364.45 44.1375 364.77 44.2575 365.07C44.2875 365.19 44.3275 365.3 44.3675 365.42C44.7875 366.65 45.2175 367.86 45.6675 369.07C63.8375 417.47 114.198 447.93 167.158 439.22C167.458 439.17 167.747 439.12 168.037 439.07L168.027 439.06Z" fill="white"/>
<path d="M147.433 482.17C138.773 493.33 128.283 502.81 116.323 510.02C61.2533 493.52 27.5233 436.98 40.2433 380C41.2633 375.37 42.5833 370.87 44.1533 366.53C44.4333 365.73 44.7333 364.93 45.0333 364.14C44.9533 365.27 44.8933 366.4 44.8433 367.53C42.7433 419.93 78.3033 467.97 131.303 479.79C136.693 480.99 142.083 481.79 147.433 482.17Z" fill="white"/>
<path d="M105.986 516.07C97.7362 519.77 88.9262 522.46 79.6762 523.99C71.8262 525.28 64.0062 525.68 56.3162 525.24C12.4262 489.05 2.86617 424.65 35.8162 377.03C38.5962 373.02 41.5862 369.24 44.7762 365.72C45.2562 365.19 45.7362 364.66 46.2262 364.14C45.8662 364.87 45.5262 365.59 45.1862 366.32C22.9362 414.25 37.7262 472.66 82.6562 503.75C90.0762 508.88 97.9062 512.99 105.976 516.08L105.986 516.07Z" fill="white"/>
</svg>
