<svg width="170" height="363" viewBox="0 0 170 363" fill="none" xmlns="http://www.w3.org/2000/svg">
<path d="M162.6 77.7C159.6 90.8 154.6 102.8 147.9 113.6C136.6 131.9 120.6 146.6 101.9 156.4C98.0002 158 94.1002 159.7 90.4002 161.7C60.7002 177.3 37.7002 205.2 29.7002 240.5C29.5002 241.6 29.2002 242.7 29.0002 243.7C27.8002 231.4 28.6002 218.6 31.5002 205.9C34.5002 192.8 39.5002 180.8 46.2002 170C57.5002 151.7 73.5002 137 92.2002 127.2C96.2002 125.6 100.1 123.9 103.8 121.9C133.5 106.3 156.4 78.4 164.5 43.2C164.7 42.1 165 41.1 165.2 40C166.3 52.2 165.5 64.9 162.6 77.7Z" fill="url(#paint0_linear_1085_84)"/>
<path d="M161.901 132.6C159.301 138.5 156.201 143.9 152.501 149C141.701 163.9 126.801 175.2 109.701 182C102.701 183.3 95.9008 185.3 89.5008 187.8C66.6008 196.9 47.6008 213.9 37.3008 237.2C34.9008 242.6 33.1008 248.1 31.8008 253.7C24.7008 239.4 25.4008 230.3 27.6008 224.4C29.8008 218.6 33.8008 215.3 38.8008 204.2C39.5008 202.8 41.0008 199.2 43.8008 194.6C45.2008 192.3 46.6008 190 48.2008 187.9C59.0008 172.9 73.9008 161.7 91.1008 154.9C98.1008 153.6 104.801 151.7 111.301 149.1C134.201 140 153.201 123 163.501 99.7002C165.901 94.3002 167.701 88.8002 169.001 83.2002C171.101 99.7002 168.901 116.7 161.901 132.6Z" fill="url(#paint1_linear_1085_84)"/>
<path d="M146.601 67.6001C145.101 74.5001 141.801 89.0001 130.701 104.1C123.301 114.3 114.801 121.3 107.701 126C96.4006 130.9 87.9006 136.8 82.0006 141.6C63.6006 156.6 54.5006 173.8 50.4006 182.5C48.5006 186.4 45.6006 194.3 39.8006 210C35.5006 221.6 33.0006 228.8 31.8006 238.5C31.1006 243.8 31.0006 248.2 31.0006 251.3C20.9006 231.2 17.3006 207.6 22.4006 183.9C25.3006 170.4 30.8006 158.1 38.3006 147.4C47.4006 134.3 59.4006 123.7 73.2006 116.2C78.0006 114.5 82.6006 112.4 87.0006 109.9C94.0006 106.1 103.001 100.1 111.801 91.0001C119.301 83.2001 124.101 75.7001 126.901 70.7001C129.901 65.4001 134.901 55.5001 137.801 42.1001C140.601 29.3001 140.801 16.5001 138.901 4.3001C138.701 3.2001 138.501 2.0001 138.301 0.900101C138.301 0.600101 138.201 0.400098 138.101 0.100098C148.101 20.3001 151.701 43.9001 146.601 67.6001Z" fill="url(#paint2_linear_1085_84)"/>
<path d="M95.6 177.4C95.6 178.9 95.4 180.3 95.4 180.3C94.9 182.9 93.5 184.7 92.5 185.7C91.2 183.9 88.6 180.9 84.3 178.7C83.3 178.2 80.1 176.6 75.6 176.2C72.2 175.9 69.7 176.3 67.5 176.8C62.9 177.7 59.6 179.2 57 180.4C55.9 180.9 51.7 182.9 46.6 186.7C43.7 188.8 39.7 191.9 35.7 197C33.6 199.6 30.9 203.6 28.6 209.1C12.5 205.2 0.5 190.6 0.5 173.2C0.5 152.8 17 136.3 37.4 136.3C50.2 136.3 61.6 142.9 68.2 152.8C83.4 153.5 95.6 164.2 95.6 177.4Z" fill="white" stroke="white" stroke-miterlimit="10"/>
<path d="M116.301 303C113.901 311.5 110.301 319.5 105.701 326.6C69.5008 326 37.8008 299.6 31.8008 262.7C31.3008 259.8 31.0008 256.8 30.9008 253.9C30.9008 253 30.8008 252.1 30.8008 251.3C30.9008 251.5 30.9008 251.7 31.0008 251.9C31.0008 252 31.0008 252.1 31.1008 252.1C31.4008 252.9 31.7008 253.8 32.0008 254.6C44.5008 288 79.3008 309 115.801 303C115.901 303.1 116.101 303 116.301 303Z" fill="url(#paint3_linear_1085_84)"/>
<path d="M102.099 332.7C96.099 340.4 88.899 346.9 80.599 351.9C42.599 340.5 19.299 301.5 28.099 262.2C28.799 259 29.699 255.9 30.799 252.9C30.999 252.4 31.199 251.8 31.399 251.3C31.299 252.1 31.299 252.9 31.299 253.6C29.799 289.7 54.399 322.9 90.899 331C94.699 331.9 98.399 332.5 102.099 332.7Z" fill="url(#paint4_linear_1085_84)"/>
<path d="M73.4998 356.1C67.7998 358.7 61.6997 360.5 55.3997 361.6C49.9997 362.5 44.5998 362.8 39.2998 362.5C8.99976 337.5 2.39976 293.1 25.1998 260.3C27.0998 257.5 29.1998 254.9 31.3998 252.5C31.6998 252.1 32.0998 251.8 32.3998 251.4C32.1998 251.9 31.8998 252.4 31.6998 252.9C16.3998 286 26.5998 326.2 57.4998 347.7C62.4998 351.1 67.8998 354 73.4998 356.1Z" fill="url(#paint5_linear_1085_84)"/>
<defs>
<linearGradient id="paint0_linear_1085_84" x1="74.163" y1="174.123" x2="153.357" y2="62.0624" gradientUnits="userSpaceOnUse">
<stop stop-color="#D32E2E"/>
<stop offset="1" stop-color="#F37021"/>
</linearGradient>
<linearGradient id="paint1_linear_1085_84" x1="26.0212" y1="168.458" x2="169.705" y2="168.458" gradientUnits="userSpaceOnUse">
<stop stop-color="#F37021"/>
<stop offset="1" stop-color="#D32E2E"/>
</linearGradient>
<linearGradient id="paint2_linear_1085_84" x1="20.0164" y1="125.728" x2="148.903" y2="125.728" gradientUnits="userSpaceOnUse">
<stop stop-color="#F37021"/>
<stop offset="1" stop-color="#D32E2E"/>
</linearGradient>
<linearGradient id="paint3_linear_1085_84" x1="30.7197" y1="288.956" x2="116.307" y2="288.956" gradientUnits="userSpaceOnUse">
<stop stop-color="#F37021"/>
<stop offset="1" stop-color="#D32E2E"/>
</linearGradient>
<linearGradient id="paint4_linear_1085_84" x1="35.7401" y1="289.217" x2="96.0674" y2="335.087" gradientUnits="userSpaceOnUse">
<stop offset="0.7009" stop-color="#F37021"/>
<stop offset="1" stop-color="#D32E2E"/>
</linearGradient>
<linearGradient id="paint5_linear_1085_84" x1="11.5547" y1="306.924" x2="73.5122" y2="306.924" gradientUnits="userSpaceOnUse">
<stop stop-color="#F37021"/>
<stop offset="1" stop-color="#D32E2E"/>
</linearGradient>
</defs>
</svg>
