<svg width="717" height="294" viewBox="0 0 717 294" fill="none" xmlns="http://www.w3.org/2000/svg">
<path d="M130.83 62.1289C128.425 72.6307 124.416 82.2506 119.045 90.9086C109.987 105.579 97.1599 117.363 82.1688 125.22C79.0423 126.502 75.9159 127.865 72.9497 129.469C49.1403 141.974 30.7021 164.341 24.2888 192.64C24.1284 193.521 23.888 194.403 23.7276 195.205C22.7656 185.344 23.407 175.083 25.7318 164.902C28.1368 154.4 32.145 144.78 37.5162 136.122C46.575 121.452 59.4016 109.667 74.3927 101.811C77.5993 100.529 80.7258 99.1657 83.6919 97.5624C107.501 85.0565 125.859 62.6901 132.353 34.4716C132.513 33.5897 132.754 32.7881 132.914 31.9062C133.796 41.7667 133.155 51.9478 130.83 62.1289Z" fill="url(#paint0_linear_1085_71)"/>
<path d="M130.19 106.22C128.105 110.95 125.62 115.279 122.654 119.368C113.996 131.312 102.051 140.371 88.343 145.822C82.7313 146.865 77.2801 148.468 72.1494 150.472C53.7914 157.767 38.5597 171.395 30.3026 190.074C28.3786 194.403 26.9356 198.812 25.8935 203.302C20.2017 191.838 20.7629 184.543 22.5265 179.813C24.2902 175.163 27.4968 172.518 31.5051 163.619C32.0663 162.497 33.2688 159.611 35.5134 155.923C36.6357 154.08 37.7581 152.236 39.0408 150.552C47.6987 138.527 59.6435 129.549 73.4321 124.097C79.0437 123.055 84.4148 121.532 89.6256 119.448C107.984 112.153 123.215 98.5243 131.472 79.8456C133.396 75.5166 134.839 71.1075 135.882 66.6182C137.565 79.8456 135.882 93.4739 130.19 106.22Z" fill="url(#paint1_linear_1085_71)"/>
<path d="M117.925 54.1122C116.722 59.6437 114.077 71.2678 105.178 83.3729C99.246 91.5498 92.4319 97.1615 86.7401 100.929C77.6813 104.857 70.8672 109.587 66.1374 113.435C51.3868 125.46 44.0916 139.249 40.8048 146.223C39.2817 149.35 36.9568 155.683 32.3072 168.269C28.86 177.568 26.8559 183.34 25.8939 191.116C25.3327 195.365 25.2526 198.892 25.2526 201.378C17.1558 185.264 14.2698 166.345 18.3583 147.346C20.6831 136.523 25.0922 126.663 31.1047 118.085C38.3998 107.583 48.0198 99.0855 59.0827 93.073C62.9307 91.7102 66.6184 90.0267 70.1457 88.0225C75.7573 84.9762 82.9722 80.1662 90.0268 72.8711C96.0393 66.6181 99.8873 60.6057 102.132 56.5974C104.537 52.3485 108.545 44.4121 110.87 33.6698C113.115 23.4085 113.275 13.1473 111.752 3.36699C111.592 2.48516 111.431 1.52316 111.271 0.641332C111.271 0.400834 111.191 0.240499 111.111 0C119.207 16.1936 122.093 35.1128 117.925 54.1122Z" fill="url(#paint2_linear_1085_71)"/>
<path d="M77.0389 142.135C77.0389 143.337 76.8785 144.459 76.8785 144.459C76.4777 146.544 75.3554 147.987 74.5538 148.788C73.5116 147.345 71.4272 144.94 67.9801 143.177C67.1784 142.776 64.6131 141.493 61.0056 141.173C58.28 140.932 56.2759 141.253 54.5122 141.654C50.8246 142.375 48.1791 143.578 46.0947 144.54C45.2129 144.94 41.8459 146.544 37.7574 149.59C35.4326 151.274 32.226 153.759 29.0193 157.847C27.3358 159.931 25.1713 163.138 23.3275 167.547C10.4208 164.421 0.800781 152.717 0.800781 138.768C0.800781 122.414 14.0282 109.186 30.3821 109.186C40.6434 109.186 49.7824 114.477 55.0733 122.414C67.3388 122.975 77.0389 131.553 77.0389 142.135Z" fill="white" stroke="white" stroke-miterlimit="10"/>
<path d="M93.714 242.823C91.79 249.638 88.904 256.051 85.2164 261.743C56.1962 261.262 30.7835 240.098 25.9735 210.516C25.5727 208.192 25.3322 205.787 25.252 203.462C25.252 202.74 25.1719 202.019 25.1719 201.377C25.252 201.538 25.2521 201.698 25.3322 201.858C25.3322 201.939 25.3322 202.019 25.4124 202.019C25.6529 202.66 25.8934 203.382 26.1339 204.023C36.1547 230.798 64.0524 247.633 93.3131 242.823C93.3933 242.823 93.5536 242.823 93.714 242.823Z" fill="url(#paint3_linear_1085_71)"/>
<path d="M82.3311 266.633C77.5211 272.806 71.7492 278.016 65.0954 282.025C34.6322 272.886 15.9535 241.621 23.0081 210.116C23.5693 207.55 24.2908 205.065 25.1726 202.66C25.3329 202.259 25.4932 201.778 25.6536 201.377C25.5734 202.019 25.5734 202.66 25.5734 203.221C24.3709 232.161 44.0919 258.776 73.3525 265.27C76.3988 265.991 79.365 266.392 82.3311 266.633Z" fill="url(#paint4_linear_1085_71)"/>
<path d="M59.4016 285.392C54.8321 287.476 49.942 288.919 44.8915 289.801C40.5625 290.522 36.2335 290.763 31.9847 290.522C7.69435 270.481 2.40335 234.887 20.6813 208.593C22.2044 206.348 23.8879 204.264 25.6516 202.34C25.8921 202.019 26.2127 201.778 26.4532 201.458C26.2929 201.859 26.0524 202.259 25.8921 202.66C13.6266 229.195 21.8036 261.422 46.575 278.658C50.5833 281.384 54.9123 283.708 59.4016 285.392Z" fill="url(#paint5_linear_1085_71)"/>
<path d="M202.043 154.349H253.132V174.115H202.043V154.349ZM203.868 212.888H179.235V106.453H259.671V126.219H203.868V212.888ZM311.52 214.105C302.802 214.105 295.048 212.28 288.256 208.631C281.566 204.982 276.244 200.015 272.291 193.73C268.439 187.344 266.513 180.096 266.513 171.987C266.513 163.776 268.439 156.528 272.291 150.243C276.244 143.857 281.566 138.89 288.256 135.342C295.048 131.693 302.802 129.868 311.52 129.868C320.136 129.868 327.84 131.693 334.632 135.342C341.423 138.89 346.745 143.806 350.597 150.091C354.449 156.376 356.375 163.675 356.375 171.987C356.375 180.096 354.449 187.344 350.597 193.73C346.745 200.015 341.423 204.982 334.632 208.631C327.84 212.28 320.136 214.105 311.52 214.105ZM311.52 194.642C315.473 194.642 319.021 193.73 322.164 191.905C325.306 190.081 327.79 187.496 329.614 184.151C331.439 180.704 332.351 176.65 332.351 171.987C332.351 167.222 331.439 163.168 329.614 159.823C327.79 156.477 325.306 153.893 322.164 152.068C319.021 150.243 315.473 149.331 311.52 149.331C307.567 149.331 304.019 150.243 300.876 152.068C297.734 153.893 295.2 156.477 293.274 159.823C291.449 163.168 290.537 167.222 290.537 171.987C290.537 176.65 291.449 180.704 293.274 184.151C295.2 187.496 297.734 190.081 300.876 191.905C304.019 193.73 307.567 194.642 311.52 194.642ZM412.828 214.105C403.502 214.105 395.291 212.28 388.195 208.631C381.201 204.982 375.778 200.015 371.926 193.73C368.074 187.344 366.148 180.096 366.148 171.987C366.148 163.776 368.023 156.528 371.774 150.243C375.626 143.857 380.846 138.89 387.435 135.342C394.024 131.693 401.475 129.868 409.787 129.868C417.795 129.868 424.992 131.592 431.378 135.038C437.865 138.383 442.985 143.249 446.735 149.635C450.486 155.92 452.361 163.472 452.361 172.291C452.361 173.203 452.31 174.267 452.209 175.484C452.108 176.599 452.006 177.663 451.905 178.677H385.458V164.84H439.437L430.314 168.946C430.314 164.688 429.452 160.988 427.729 157.846C426.005 154.704 423.623 152.271 420.582 150.547C417.541 148.723 413.993 147.811 409.939 147.811C405.884 147.811 402.285 148.723 399.143 150.547C396.102 152.271 393.72 154.754 391.997 157.998C390.273 161.14 389.412 164.891 389.412 169.25V172.899C389.412 177.359 390.375 181.312 392.301 184.759C394.328 188.104 397.116 190.689 400.664 192.514C404.313 194.237 408.57 195.098 413.436 195.098C417.795 195.098 421.596 194.44 424.84 193.122C428.185 191.804 431.226 189.827 433.963 187.192L446.583 200.876C442.832 205.134 438.119 208.428 432.442 210.76C426.766 212.99 420.228 214.105 412.828 214.105ZM517.874 129.868C524.361 129.868 530.139 131.186 535.208 133.822C540.377 136.356 544.432 140.309 547.372 145.682C550.311 150.953 551.781 157.745 551.781 166.057V212.888H528.061V169.706C528.061 163.117 526.591 158.251 523.652 155.109C520.813 151.967 516.759 150.395 511.488 150.395C507.737 150.395 504.341 151.206 501.3 152.828C498.36 154.349 496.029 156.731 494.306 159.975C492.684 163.218 491.873 167.374 491.873 172.443V212.888H468.153V131.085H490.809V153.741L486.551 146.898C489.491 141.424 493.698 137.218 499.171 134.278C504.645 131.338 510.879 129.868 517.874 129.868ZM573.282 212.888V131.085H597.002V212.888H573.282ZM585.142 119.681C580.783 119.681 577.235 118.414 574.499 115.88C571.762 113.346 570.393 110.203 570.393 106.453C570.393 102.702 571.762 99.5596 574.499 97.0254C577.235 94.4912 580.783 93.2241 585.142 93.2241C589.501 93.2241 593.049 94.4405 595.786 96.8734C598.523 99.2048 599.891 102.246 599.891 105.996C599.891 109.95 598.523 113.244 595.786 115.88C593.15 118.414 589.602 119.681 585.142 119.681ZM608.677 212.888L645.321 164.84L644.865 177.917L609.741 131.085H636.35L658.55 161.647L648.514 161.951L671.474 131.085H696.714L661.439 177.46V164.688L697.931 212.888H671.018L647.754 180.349L657.637 181.718L634.525 212.888H608.677Z" fill="#434343"/>
<path d="M184.192 268.565H198.449V271.961H184.192V268.565ZM184.586 283.138H180.637V255.493H200.147V258.928H184.586V283.138ZM204.768 283.138V262.206H208.401V267.894L208.046 266.472C208.625 265.024 209.599 263.918 210.968 263.154C212.337 262.391 214.023 262.009 216.024 262.009V265.682C215.866 265.656 215.708 265.642 215.55 265.642C215.418 265.642 215.286 265.642 215.155 265.642C213.127 265.642 211.521 266.248 210.336 267.459C209.152 268.67 208.559 270.421 208.559 272.712V283.138H204.768ZM229.469 283.375C227.362 283.375 225.493 282.914 223.861 281.993C222.228 281.071 220.938 279.808 219.99 278.201C219.042 276.569 218.568 274.726 218.568 272.672C218.568 270.592 219.042 268.749 219.99 267.143C220.938 265.537 222.228 264.286 223.861 263.391C225.493 262.47 227.362 262.009 229.469 262.009C231.549 262.009 233.405 262.47 235.037 263.391C236.696 264.286 237.986 265.537 238.908 267.143C239.856 268.723 240.329 270.566 240.329 272.672C240.329 274.752 239.856 276.595 238.908 278.201C237.986 279.808 236.696 281.071 235.037 281.993C233.405 282.914 231.549 283.375 229.469 283.375ZM229.469 280.058C230.811 280.058 232.009 279.755 233.063 279.149C234.142 278.544 234.985 277.688 235.59 276.582C236.196 275.45 236.499 274.147 236.499 272.672C236.499 271.172 236.196 269.881 235.59 268.802C234.985 267.696 234.142 266.84 233.063 266.235C232.009 265.629 230.811 265.326 229.469 265.326C228.126 265.326 226.928 265.629 225.875 266.235C224.822 266.84 223.979 267.696 223.347 268.802C222.715 269.881 222.399 271.172 222.399 272.672C222.399 274.147 222.715 275.45 223.347 276.582C223.979 277.688 224.822 278.544 225.875 279.149C226.928 279.755 228.126 280.058 229.469 280.058ZM271.757 262.009C273.442 262.009 274.93 262.338 276.22 262.996C277.51 263.655 278.511 264.655 279.222 265.998C279.959 267.341 280.327 269.039 280.327 271.093V283.138H276.536V271.527C276.536 269.5 276.062 267.973 275.114 266.946C274.166 265.919 272.837 265.405 271.125 265.405C269.862 265.405 268.756 265.669 267.808 266.195C266.86 266.722 266.123 267.499 265.596 268.525C265.096 269.552 264.846 270.829 264.846 272.356V283.138H261.054V271.527C261.054 269.5 260.581 267.973 259.633 266.946C258.711 265.919 257.382 265.405 255.644 265.405C254.406 265.405 253.314 265.669 252.366 266.195C251.418 266.722 250.681 267.499 250.154 268.525C249.628 269.552 249.364 270.829 249.364 272.356V283.138H245.573V262.206H249.206V267.775L248.614 266.353C249.272 264.984 250.286 263.918 251.655 263.154C253.024 262.391 254.617 262.009 256.434 262.009C258.435 262.009 260.159 262.509 261.607 263.51C263.056 264.484 264.003 265.972 264.451 267.973L262.911 267.341C263.543 265.735 264.648 264.444 266.228 263.47C267.808 262.496 269.651 262.009 271.757 262.009ZM294.276 283.138L306.796 255.493H310.706L323.265 283.138H319.118L307.941 257.704H309.521L298.344 283.138H294.276ZM299.608 276.227L300.674 273.067H316.235L317.38 276.227H299.608ZM332.646 283.375C330.909 283.375 329.25 283.138 327.67 282.664C326.117 282.19 324.892 281.611 323.997 280.927L325.577 277.925C326.472 278.531 327.578 279.044 328.894 279.465C330.211 279.887 331.554 280.097 332.923 280.097C334.687 280.097 335.951 279.847 336.714 279.347C337.504 278.847 337.899 278.149 337.899 277.254C337.899 276.595 337.662 276.082 337.188 275.713C336.714 275.345 336.082 275.068 335.292 274.884C334.529 274.7 333.673 274.542 332.725 274.41C331.777 274.252 330.83 274.068 329.882 273.857C328.934 273.62 328.065 273.304 327.275 272.909C326.485 272.488 325.853 271.922 325.379 271.211C324.905 270.474 324.669 269.5 324.669 268.289C324.669 267.025 325.024 265.919 325.735 264.971C326.446 264.023 327.446 263.299 328.736 262.799C330.053 262.272 331.606 262.009 333.397 262.009C334.766 262.009 336.148 262.18 337.543 262.522C338.965 262.838 340.124 263.299 341.019 263.905L339.4 266.906C338.452 266.274 337.464 265.84 336.438 265.603C335.411 265.366 334.384 265.247 333.357 265.247C331.698 265.247 330.461 265.524 329.645 266.077C328.829 266.603 328.42 267.288 328.42 268.131C328.42 268.841 328.657 269.394 329.131 269.789C329.632 270.158 330.263 270.448 331.027 270.658C331.817 270.869 332.686 271.053 333.634 271.211C334.581 271.343 335.529 271.527 336.477 271.764C337.425 271.975 338.281 272.277 339.044 272.672C339.834 273.067 340.466 273.62 340.94 274.331C341.44 275.042 341.69 275.99 341.69 277.175C341.69 278.438 341.322 279.531 340.585 280.453C339.847 281.374 338.807 282.098 337.464 282.625C336.122 283.125 334.516 283.375 332.646 283.375ZM357.605 262.009C359.317 262.009 360.818 262.338 362.108 262.996C363.424 263.655 364.451 264.655 365.188 265.998C365.925 267.341 366.294 269.039 366.294 271.093V283.138H362.503V271.527C362.503 269.5 362.002 267.973 361.002 266.946C360.028 265.919 358.645 265.405 356.855 265.405C355.512 265.405 354.341 265.669 353.34 266.195C352.34 266.722 351.563 267.499 351.01 268.525C350.483 269.552 350.22 270.829 350.22 272.356V283.138H346.429V253.834H350.22V267.854L349.47 266.353C350.154 264.984 351.207 263.918 352.629 263.154C354.051 262.391 355.71 262.009 357.605 262.009ZM382.631 283.375C380.393 283.375 378.419 282.914 376.707 281.993C375.022 281.071 373.706 279.808 372.758 278.201C371.836 276.595 371.375 274.752 371.375 272.672C371.375 270.592 371.823 268.749 372.718 267.143C373.64 265.537 374.89 264.286 376.47 263.391C378.076 262.47 379.88 262.009 381.881 262.009C383.908 262.009 385.699 262.457 387.252 263.352C388.805 264.247 390.017 265.511 390.885 267.143C391.781 268.749 392.228 270.632 392.228 272.791C392.228 272.949 392.215 273.133 392.189 273.344C392.189 273.554 392.176 273.752 392.149 273.936H374.338V271.211H390.175L388.634 272.159C388.661 270.816 388.384 269.618 387.805 268.565C387.226 267.512 386.423 266.696 385.396 266.116C384.395 265.511 383.224 265.208 381.881 265.208C380.564 265.208 379.393 265.511 378.366 266.116C377.339 266.696 376.536 267.525 375.957 268.604C375.378 269.658 375.088 270.869 375.088 272.238V272.87C375.088 274.265 375.404 275.516 376.036 276.622C376.694 277.701 377.602 278.544 378.761 279.149C379.919 279.755 381.249 280.058 382.75 280.058C383.987 280.058 385.106 279.847 386.107 279.426C387.134 279.004 388.029 278.373 388.792 277.53L390.885 279.979C389.938 281.085 388.753 281.927 387.331 282.506C385.936 283.086 384.369 283.375 382.631 283.375ZM403.496 283.375C401.758 283.375 400.1 283.138 398.52 282.664C396.966 282.19 395.742 281.611 394.847 280.927L396.427 277.925C397.322 278.531 398.428 279.044 399.744 279.465C401.061 279.887 402.403 280.097 403.772 280.097C405.536 280.097 406.8 279.847 407.564 279.347C408.354 278.847 408.749 278.149 408.749 277.254C408.749 276.595 408.512 276.082 408.038 275.713C407.564 275.345 406.932 275.068 406.142 274.884C405.379 274.7 404.523 274.542 403.575 274.41C402.627 274.252 401.679 274.068 400.731 273.857C399.784 273.62 398.915 273.304 398.125 272.909C397.335 272.488 396.703 271.922 396.229 271.211C395.755 270.474 395.518 269.5 395.518 268.289C395.518 267.025 395.874 265.919 396.585 264.971C397.295 264.023 398.296 263.299 399.586 262.799C400.903 262.272 402.456 262.009 404.246 262.009C405.615 262.009 406.998 262.18 408.393 262.522C409.815 262.838 410.973 263.299 411.869 263.905L410.249 266.906C409.302 266.274 408.314 265.84 407.287 265.603C406.261 265.366 405.234 265.247 404.207 265.247C402.548 265.247 401.311 265.524 400.494 266.077C399.678 266.603 399.27 267.288 399.27 268.131C399.27 268.841 399.507 269.394 399.981 269.789C400.481 270.158 401.113 270.448 401.877 270.658C402.667 270.869 403.535 271.053 404.483 271.211C405.431 271.343 406.379 271.527 407.327 271.764C408.275 271.975 409.13 272.277 409.894 272.672C410.684 273.067 411.316 273.62 411.79 274.331C412.29 275.042 412.54 275.99 412.54 277.175C412.54 278.438 412.171 279.531 411.434 280.453C410.697 281.374 409.657 282.098 408.314 282.625C406.971 283.125 405.365 283.375 403.496 283.375ZM435.073 283.375C432.966 283.375 431.334 282.809 430.175 281.677C429.017 280.545 428.438 278.926 428.438 276.819V257.625H432.229V276.661C432.229 277.793 432.505 278.662 433.058 279.268C433.638 279.873 434.454 280.176 435.507 280.176C436.692 280.176 437.679 279.847 438.469 279.189L439.654 281.914C439.075 282.414 438.377 282.783 437.561 283.02C436.771 283.257 435.941 283.375 435.073 283.375ZM424.883 265.326V262.206H438.232V265.326H424.883ZM452.508 283.375C450.402 283.375 448.533 282.914 446.9 281.993C445.268 281.071 443.978 279.808 443.03 278.201C442.082 276.569 441.608 274.726 441.608 272.672C441.608 270.592 442.082 268.749 443.03 267.143C443.978 265.537 445.268 264.286 446.9 263.391C448.533 262.47 450.402 262.009 452.508 262.009C454.588 262.009 456.445 262.47 458.077 263.391C459.736 264.286 461.026 265.537 461.947 267.143C462.895 268.723 463.369 270.566 463.369 272.672C463.369 274.752 462.895 276.595 461.947 278.201C461.026 279.808 459.736 281.071 458.077 281.993C456.445 282.914 454.588 283.375 452.508 283.375ZM452.508 280.058C453.851 280.058 455.049 279.755 456.102 279.149C457.182 278.544 458.024 277.688 458.63 276.582C459.236 275.45 459.538 274.147 459.538 272.672C459.538 271.172 459.236 269.881 458.63 268.802C458.024 267.696 457.182 266.84 456.102 266.235C455.049 265.629 453.851 265.326 452.508 265.326C451.166 265.326 449.968 265.629 448.914 266.235C447.861 266.84 447.019 267.696 446.387 268.802C445.755 269.881 445.439 271.172 445.439 272.672C445.439 274.147 445.755 275.45 446.387 276.582C447.019 277.688 447.861 278.544 448.914 279.149C449.968 279.755 451.166 280.058 452.508 280.058ZM483.366 267.42H497.583V270.777H483.366V267.42ZM483.721 279.702H499.835V283.138H479.772V255.493H499.282V258.928H483.721V279.702ZM502.173 283.138L511.177 271.448L511.138 273.383L502.568 262.206H506.794L513.35 270.816H511.73L518.286 262.206H522.433L513.744 273.462L513.784 271.448L522.868 283.138H518.563L511.651 273.976L513.192 274.213L506.399 283.138H502.173ZM535.434 283.375C533.301 283.375 531.392 282.914 529.707 281.993C528.048 281.071 526.745 279.808 525.797 278.201C524.849 276.595 524.375 274.752 524.375 272.672C524.375 270.592 524.849 268.749 525.797 267.143C526.745 265.537 528.048 264.286 529.707 263.391C531.392 262.47 533.301 262.009 535.434 262.009C537.329 262.009 539.014 262.391 540.489 263.154C541.99 263.892 543.148 264.997 543.964 266.472L541.081 268.328C540.397 267.301 539.554 266.551 538.554 266.077C537.579 265.577 536.526 265.326 535.394 265.326C534.025 265.326 532.801 265.629 531.721 266.235C530.642 266.84 529.786 267.696 529.154 268.802C528.522 269.881 528.206 271.172 528.206 272.672C528.206 274.173 528.522 275.476 529.154 276.582C529.786 277.688 530.642 278.544 531.721 279.149C532.801 279.755 534.025 280.058 535.394 280.058C536.526 280.058 537.579 279.821 538.554 279.347C539.554 278.847 540.397 278.083 541.081 277.056L543.964 278.873C543.148 280.321 541.99 281.44 540.489 282.23C539.014 282.993 537.329 283.375 535.434 283.375ZM557.885 283.375C555.647 283.375 553.672 282.914 551.961 281.993C550.276 281.071 548.959 279.808 548.012 278.201C547.09 276.595 546.629 274.752 546.629 272.672C546.629 270.592 547.077 268.749 547.972 267.143C548.894 265.537 550.144 264.286 551.724 263.391C553.33 262.47 555.134 262.009 557.135 262.009C559.162 262.009 560.952 262.457 562.506 263.352C564.059 264.247 565.27 265.511 566.139 267.143C567.034 268.749 567.482 270.632 567.482 272.791C567.482 272.949 567.469 273.133 567.442 273.344C567.442 273.554 567.429 273.752 567.403 273.936H549.591V271.211H565.428L563.888 272.159C563.914 270.816 563.638 269.618 563.059 268.565C562.479 267.512 561.676 266.696 560.65 266.116C559.649 265.511 558.477 265.208 557.135 265.208C555.818 265.208 554.646 265.511 553.62 266.116C552.593 266.696 551.79 267.525 551.211 268.604C550.631 269.658 550.342 270.869 550.342 272.238V272.87C550.342 274.265 550.658 275.516 551.289 276.622C551.948 277.701 552.856 278.544 554.015 279.149C555.173 279.755 556.503 280.058 558.003 280.058C559.241 280.058 560.36 279.847 561.36 279.426C562.387 279.004 563.282 278.373 564.046 277.53L566.139 279.979C565.191 281.085 564.007 281.927 562.585 282.506C561.189 283.086 559.623 283.375 557.885 283.375ZM572.747 283.138V253.834H576.538V283.138H572.747ZM583.777 283.138V253.834H587.569V283.138H583.777ZM604.128 283.375C601.89 283.375 599.916 282.914 598.204 281.993C596.519 281.071 595.203 279.808 594.255 278.201C593.333 276.595 592.872 274.752 592.872 272.672C592.872 270.592 593.32 268.749 594.215 267.143C595.137 265.537 596.387 264.286 597.967 263.391C599.573 262.47 601.377 262.009 603.378 262.009C605.405 262.009 607.196 262.457 608.749 263.352C610.302 264.247 611.514 265.511 612.382 267.143C613.278 268.749 613.725 270.632 613.725 272.791C613.725 272.949 613.712 273.133 613.686 273.344C613.686 273.554 613.673 273.752 613.646 273.936H595.834V271.211H611.672L610.131 272.159C610.158 270.816 609.881 269.618 609.302 268.565C608.723 267.512 607.92 266.696 606.893 266.116C605.892 265.511 604.721 265.208 603.378 265.208C602.061 265.208 600.89 265.511 599.863 266.116C598.836 266.696 598.033 267.525 597.454 268.604C596.874 269.658 596.585 270.869 596.585 272.238V272.87C596.585 274.265 596.901 275.516 597.533 276.622C598.191 277.701 599.099 278.544 600.258 279.149C601.416 279.755 602.746 280.058 604.247 280.058C605.484 280.058 606.603 279.847 607.604 279.426C608.63 279.004 609.526 278.373 610.289 277.53L612.382 279.979C611.435 281.085 610.25 281.927 608.828 282.506C607.433 283.086 605.866 283.375 604.128 283.375ZM630.167 262.009C631.878 262.009 633.379 262.338 634.669 262.996C635.985 263.655 637.012 264.655 637.749 265.998C638.487 267.341 638.855 269.039 638.855 271.093V283.138H635.064V271.527C635.064 269.5 634.564 267.973 633.563 266.946C632.589 265.919 631.207 265.405 629.416 265.405C628.073 265.405 626.902 265.669 625.901 266.195C624.901 266.722 624.124 267.499 623.571 268.525C623.045 269.552 622.781 270.829 622.781 272.356V283.138H618.99V262.206H622.623V267.854L622.031 266.353C622.715 264.984 623.769 263.918 625.19 263.154C626.612 262.391 628.271 262.009 630.167 262.009ZM654.995 283.375C652.862 283.375 650.953 282.914 649.268 281.993C647.61 281.071 646.306 279.808 645.358 278.201C644.411 276.595 643.937 274.752 643.937 272.672C643.937 270.592 644.411 268.749 645.358 267.143C646.306 265.537 647.61 264.286 649.268 263.391C650.953 262.47 652.862 262.009 654.995 262.009C656.891 262.009 658.576 262.391 660.05 263.154C661.551 263.892 662.709 264.997 663.526 266.472L660.643 268.328C659.958 267.301 659.115 266.551 658.115 266.077C657.141 265.577 656.088 265.326 654.955 265.326C653.586 265.326 652.362 265.629 651.283 266.235C650.203 266.84 649.347 267.696 648.715 268.802C648.084 269.881 647.768 271.172 647.768 272.672C647.768 274.173 648.084 275.476 648.715 276.582C649.347 277.688 650.203 278.544 651.283 279.149C652.362 279.755 653.586 280.058 654.955 280.058C656.088 280.058 657.141 279.821 658.115 279.347C659.115 278.847 659.958 278.083 660.643 277.056L663.526 278.873C662.709 280.321 661.551 281.44 660.05 282.23C658.576 282.993 656.891 283.375 654.995 283.375ZM677.446 283.375C675.208 283.375 673.234 282.914 671.522 281.993C669.837 281.071 668.521 279.808 667.573 278.201C666.651 276.595 666.191 274.752 666.191 272.672C666.191 270.592 666.638 268.749 667.533 267.143C668.455 265.537 669.705 264.286 671.285 263.391C672.891 262.47 674.695 262.009 676.696 262.009C678.723 262.009 680.514 262.457 682.067 263.352C683.62 264.247 684.832 265.511 685.7 267.143C686.596 268.749 687.043 270.632 687.043 272.791C687.043 272.949 687.03 273.133 687.004 273.344C687.004 273.554 686.991 273.752 686.964 273.936H669.153V271.211H684.99L683.449 272.159C683.476 270.816 683.199 269.618 682.62 268.565C682.041 267.512 681.238 266.696 680.211 266.116C679.21 265.511 678.039 265.208 676.696 265.208C675.379 265.208 674.208 265.511 673.181 266.116C672.154 266.696 671.351 267.525 670.772 268.604C670.193 269.658 669.903 270.869 669.903 272.238V272.87C669.903 274.265 670.219 275.516 670.851 276.622C671.509 277.701 672.417 278.544 673.576 279.149C674.734 279.755 676.064 280.058 677.565 280.058C678.802 280.058 679.921 279.847 680.922 279.426C681.949 279.004 682.844 278.373 683.607 277.53L685.7 279.979C684.753 281.085 683.568 281.927 682.146 282.506C680.751 283.086 679.184 283.375 677.446 283.375Z" fill="#434343"/>
<defs>
<linearGradient id="paint0_linear_1085_71" x1="59.9171" y1="139.5" x2="123.404" y2="49.6655" gradientUnits="userSpaceOnUse">
<stop stop-color="#D32E2E"/>
<stop offset="1" stop-color="#F37021"/>
</linearGradient>
<linearGradient id="paint1_linear_1085_71" x1="21.3245" y1="134.959" x2="136.511" y2="134.959" gradientUnits="userSpaceOnUse">
<stop stop-color="#F37021"/>
<stop offset="1" stop-color="#D32E2E"/>
</linearGradient>
<linearGradient id="paint2_linear_1085_71" x1="16.5112" y1="100.704" x2="119.834" y2="100.704" gradientUnits="userSpaceOnUse">
<stop stop-color="#F37021"/>
<stop offset="1" stop-color="#D32E2E"/>
</linearGradient>
<linearGradient id="paint3_linear_1085_71" x1="25.091" y1="231.557" x2="93.7029" y2="231.557" gradientUnits="userSpaceOnUse">
<stop stop-color="#F37021"/>
<stop offset="1" stop-color="#D32E2E"/>
</linearGradient>
<linearGradient id="paint4_linear_1085_71" x1="29.1178" y1="231.766" x2="77.4799" y2="268.539" gradientUnits="userSpaceOnUse">
<stop offset="0.7009" stop-color="#F37021"/>
<stop offset="1" stop-color="#D32E2E"/>
</linearGradient>
<linearGradient id="paint5_linear_1085_71" x1="9.72663" y1="245.962" x2="59.3956" y2="245.962" gradientUnits="userSpaceOnUse">
<stop stop-color="#F37021"/>
<stop offset="1" stop-color="#D32E2E"/>
</linearGradient>
</defs>
</svg>
